{"title":"India Uncovered - Meenakshi and Naveen @ WwW.mastitorrents.Com","uid":5201069,"size":346467344,"categoryP":"porn","categoryS":"movie_clips","magnet":"?xt=urn:btih:a02f488857eb149b3263401f5aee245612f7d7ec&amp;dn=India+Uncovered+-+Meenakshi+and+Naveen+%40+WwW.mastitorrents.Com&amp;tr=udp%3A%2F%2Ftracker.openbittorrent.com%3A80&amp;tr=udp%3A%2F%2Fopen.demonii.com%3A1337&amp;tr=udp%3A%2F%2Ftracker.coppersurfer.tk%3A6969&amp;tr=udp%3A%2F%2Fexodus.desync.com%3A6969","seeders":0,"leechers":2,"uploader":"PKJMKJ","files":-1,"time":1260165931,"description":"for Details visit \n &lt;a href=&quot;\nhttp://www.mastitorrents.com/forums/showthread.php?p=68700#post68700&quot; rel=&quot;nofollow&quot; target=&quot;_NEW&quot;&gt;\nhttp://www.mastitorrents.com/forums/showthread.php?p=68700#post68700&lt;/a&gt;\n\nGeneral\nComplete name : India Uncovered - Meenakshi and Naveen.wmv\nFormat : Windows Media\nFile size : 321 MiB\nDuration : 21mn 17s\nOverall bit rate mode : Variable\nOverall bit rate : 2 111 Kbps\nMaximum Overall bit rate : 3 141 Kbps\nEncoded date : UTC 2008-12-03 13:21:11.551\n\nVideo\nID : 2\nFormat : VC-1\nFormat profile : MP@HL\nCodec ID : WMV3\nCodec ID/Info : Windows Media Video 9\nCodec ID/Hint : WMV3\nDescription of the codec : Windows Media Video 9 - Professional\nDuration : 21mn 16s\nBit rate mode : Variable\nBit rate : 2 000 Kbps\nWidth : 1 280 pixels\nHeight : 720 pixels\nDisplay aspect ratio : 16:9\nFrame rate : 29.970 fps\nResolution : 24 bits\nScan type : Progressive\nBits/(Pixel*Frame) : 0.072\nStream size : 304 MiB (95%)\n\nAudio\nID : 1\nFormat : WMA\nFormat version : Version 2\nCodec ID : 161\nCodec ID/Info : Windows Media Audio\nDescription of the codec : Windows Media Audio 9.2 - 96 kbps, 44 kHz, stereo 2-pass VBR\nDuration : 21mn 17s\nBit rate mode : Variable\nBit rate : 97.0 Kbps\nChannel(s) : 2 channels\nSampling rate : 44.1 KHz\nResolution : 16 bits\nStream size : 14.8 MiB (5%)","torrent":{"xt":"urn:btih:a02f488857eb149b3263401f5aee245612f7d7ec","amp;dn":"India+Uncovered+-+Meenakshi+and+Naveen+%40+WwW.mastitorrents.Com","amp;tr":["udp%3A%2F%2Ftracker.openbittorrent.com%3A80","udp%3A%2F%2Fopen.demonii.com%3A1337","udp%3A%2F%2Ftracker.coppersurfer.tk%3A6969","udp%3A%2F%2Fexodus.desync.com%3A6969"],"infoHash":"a02f488857eb149b3263401f5aee245612f7d7ec","infoHashBuffer":{"type":"Buffer","data":[160,47,72,136,87,235,20,155,50,99,64,31,90,238,36,86,18,247,215,236]},"announce":[],"urlList":[]}}